<?xml version="1.0" encoding="utf-8"?>
<!-- Generator: Adobe Illustrator 24.0.1, SVG Export Plug-In . SVG Version: 6.00 Build 0)  -->
<svg version="1.1" id="Capa_1" xmlns="http://www.w3.org/2000/svg" xmlns:xlink="http://www.w3.org/1999/xlink" x="0px" y="0px"
	 viewBox="0 0 2.1 3.2" style="enable-background:new 0 0 2.1 3.2;" xml:space="preserve">
<style type="text/css">
	.st0{clip-path:url(#SVGID_2_);}
	.st1{opacity:0.35;}
	.st2{fill:#677089;}
	.st3{fill:#FFFFFF;}
</style>
<title>arrow-right</title>
<g id="Backgrouns">
	<g>
		<defs>
			<rect id="SVGID_1_" x="-405.5" y="-708.5" width="994" height="466.8"/>
		</defs>
		<clipPath id="SVGID_2_">
			<use xlink:href="#SVGID_1_"  style="overflow:visible;"/>
		</clipPath>
		<g class="st0">
			<g class="st1">
				<polygon class="st2" points="141.8,-88.7 142,-88.4 89.3,3 89.1,3.3 -16.7,3.3 -68.7,-86.7 -67.3,-86.7 -16,2.1 88.4,2.1 
					140.6,-88.4 90.5,-175.3 91.9,-175.3 				"/>
			</g>
		</g>
	</g>
</g>
<g id="Text">
	<g>
		<path class="st3" d="M0.6,2.9c0,0-0.1,0-0.1,0c0-0.1,0-0.1,0-0.2l0.9-0.8c0,0,0,0,0,0c0.1-0.2,0.1-0.4,0-0.5L0.5,0.5
			c-0.1,0-0.1-0.1,0-0.2c0-0.1,0.1-0.1,0.2,0l0.9,0.8C1.9,1.3,1.9,1.8,1.7,2c0,0,0,0-0.1,0.1L0.6,2.9C0.6,2.9,0.6,2.9,0.6,2.9z"/>
	</g>
</g>
</svg>
