<svg xmlns="http://www.w3.org/2000/svg" xmlns:xlink="http://www.w3.org/1999/xlink" viewBox="0 0 821 191"><defs><style>.a{fill:none;}.b{clip-path:url(#a);}.c{opacity:0.35;}.d{fill:#677089;}</style><clipPath id="a"><rect class="a" x="155.59" y="-539" width="466.82" height="994" transform="translate(347 -431) rotate(90)"/></clipPath></defs><title>bg-bottom</title><g class="b"><g class="c"><polygon class="d" points="410.35 232.71 410.27 232.85 408.87 232.85 408.96 232.71 371.71 168.19 297.22 168.19 259.98 232.71 260.06 232.85 258.67 232.85 258.58 232.71 296.52 166.99 372.41 166.99 410.35 232.71"/><polygon class="d" points="310.42 87.94 192.85 87.94 131.32 194.51 192.85 301.1 310.42 301.1 310.42 302.3 192.15 302.3 130.1 194.81 129.92 194.51 191.98 87.03 192.15 86.73 310.42 86.73 310.42 87.94"/><polygon class="d" points="233.31 159.27 275.18 86.73 233.31 14.19 233.31 12.56 233.32 12.56 276.02 86.52 276.14 86.73 233.44 160.69 233.32 160.9 233.31 160.9 233.31 159.27"/><polygon class="d" points="276.19 134.88 209.15 134.88 175.45 193.25 175.74 193.75 174.35 193.75 174.06 193.25 208.45 133.68 276.19 133.68 276.19 134.88"/><polygon class="d" points="413.71 124.38 413.54 124.08 466.28 32.72 466.45 32.42 572.29 32.42 624.25 122.41 622.85 122.41 571.59 33.62 467.15 33.62 414.93 124.08 465.1 210.97 463.7 210.97 413.71 124.38"/><polygon class="d" points="430.55 210.97 429.16 210.97 379.6 125.13 379.43 124.83 426.7 42.94 428.1 42.94 380.82 124.83 430.55 210.97"/><polygon class="d" points="515.55 167.84 558.82 92.9 560.21 92.9 516.94 167.84 559.61 241.75 558.22 241.75 515.55 167.84"/><polygon class="d" points="727 165.75 725.6 165.75 665.25 61.2 542.18 61.2 480.69 167.7 479.3 167.7 541.31 60.3 541.48 60 665.94 60 727 165.75"/><polygon class="d" points="92.9 80.38 126.41 138.41 92.81 196.59 91.42 196.59 125.01 138.41 91.51 80.38 92.9 80.38"/><polygon class="d" points="799.78 205.1 756.51 130.15 757.9 130.15 801.17 205.1 799.78 205.1"/><polygon class="d" points="9.61 220.86 61.05 151.27 61.61 152.54 10.17 222.14 9.61 220.86"/></g></g></svg>