<?xml version="1.0" encoding="utf-8"?>
<!-- Generator: Adobe Illustrator 24.0.1, SVG Export Plug-In . SVG Version: 6.00 Build 0)  -->
<svg version="1.1" id="Capa_1" xmlns="http://www.w3.org/2000/svg" xmlns:xlink="http://www.w3.org/1999/xlink" x="0px" y="0px"
	 viewBox="0 0 512 512" style="enable-background:new 0 0 512 512;" xml:space="preserve">
<style type="text/css">
	.st0{fill:#FF765A;}
	.st1{fill:#FAFAFA;}
	.st2{fill:#F26D57;}
	.st3{fill:#DADADA;}
</style>
<path class="st0" d="M256,0C114.8,0,0,114.8,0,256s114.8,256,256,256s256-114.8,256-256S397.2,0,256,0z"/>
<g>
	<path class="st1" d="M341.3,362.7H170.7c-11.8,0-21.3-9.6-21.3-21.3s9.6-21.3,21.3-21.3h170.7c11.8,0,21.3,9.6,21.3,21.3
		S353.1,362.7,341.3,362.7z"/>
	<path class="st1" d="M341.3,277.3H170.7c-11.8,0-21.3-9.6-21.3-21.3s9.6-21.3,21.3-21.3h170.7c11.8,0,21.3,9.6,21.3,21.3
		S353.1,277.3,341.3,277.3z"/>
	<path class="st1" d="M341.3,192H170.7c-11.8,0-21.3-9.6-21.3-21.3s9.6-21.3,21.3-21.3h170.7c11.8,0,21.3,9.6,21.3,21.3
		S353.1,192,341.3,192z"/>
</g>
<path class="st2" d="M256,0C114.8,0,0,114.8,0,256s114.8,256,256,256V362.7h-85.3c-11.8,0-21.3-9.6-21.3-21.3s9.6-21.3,21.3-21.3
	H256v-42.7h-85.3c-11.8,0-21.3-9.6-21.3-21.3s9.6-21.3,21.3-21.3H256V192h-85.3c-11.8,0-21.3-9.6-21.3-21.3s9.6-21.3,21.3-21.3H256
	V0z"/>
<g>
	<path class="st3" d="M256,320h-85.3c-11.8,0-21.3,9.6-21.3,21.3s9.6,21.3,21.3,21.3H256V320z"/>
	<path class="st3" d="M256,234.7h-85.3c-11.8,0-21.3,9.6-21.3,21.3s9.6,21.3,21.3,21.3H256V234.7z"/>
	<path class="st3" d="M256,149.3h-85.3c-11.8,0-21.3,9.6-21.3,21.3s9.6,21.3,21.3,21.3H256V149.3z"/>
</g>
</svg>
