<svg xmlns="http://www.w3.org/2000/svg" viewBox="0 0 76 106"><defs><style>.a{fill:#8f95a9;}</style></defs><title>partneL</title><path class="a" d="M24.66,52.45a1.17,1.17,0,0,0,1.22-.86,1.87,1.87,0,0,0-.07-1.07c-.15-.29-.36-.5-1.15-.65a1.13,1.13,0,0,0-1.22.86,1.26,1.26,0,0,0,0,1,1.05,1.05,0,0,0,.79.64Zm-6.44.08c.79,0,1.15-.44,1.15-1.22V28.74h5.36a1,1,0,0,0,1.15-1.15v-24c0-.79-.36-1.22-1.15-1.22a1.09,1.09,0,0,0-1.21,1.22V26.37h-5.3A1.1,1.1,0,0,0,17,27.59V51.31A1.27,1.27,0,0,0,18.22,52.53Zm6.44-19.64A1.12,1.12,0,0,0,23.44,34V47.15a1.26,1.26,0,0,0,1.22,1.22c.79,0,1.15-.43,1.15-1.22V34A1,1,0,0,0,24.66,32.89Zm-8-28.08a1,1,0,0,0,.14-1.65,1,1,0,0,0-.93-.5,1.18,1.18,0,0,0-.72.28l-11,8.89a1.41,1.41,0,0,0-.42.79.91.91,0,0,0,.21.86,1.29,1.29,0,0,0,.93.43,1,1,0,0,0,.79-.29Zm1.57,5a1.08,1.08,0,0,0-.79.29L4.34,20.64a1.6,1.6,0,0,0-.43.86.91.91,0,0,0,.29.86,1.13,1.13,0,0,0,.93.43.92.92,0,0,0,.71-.28l11.16-9v7.74a1.2,1.2,0,0,0,1.22,1.14c.79,0,1.15-.36,1.15-1.14V11A1,1,0,0,0,18.22,9.82ZM49.77,52.74c13.67,0,21.69-12.11,21.69-25.08,0-12.68-7.8-25.07-21.69-25.07-.78,0-1.14.35-1.14,1.14V8.89C39,9.75,34.25,18.42,34.25,27.52s5.44,18.63,15.6,18.63S65.37,37,65.37,27.52c0-7.09-2.07-14.11-9.08-17.34a1,1,0,0,0-.5-.07,1.09,1.09,0,0,0-1.08.72.93.93,0,0,0,0,.86.76.76,0,0,0,.65.64c4.65,2,6.72,6.52,7.44,11.32.14,1.51.21,2.79.21,3.87,0,7.88-4.15,16.27-13.16,16.27-8.73,0-13.24-8.25-13.24-16.27s4.15-16.34,13.16-16.34A1.19,1.19,0,0,0,51,10V5c11.74.86,18.1,11.61,18.1,22.71,0,11.32-6.86,22.72-19.32,22.72-12.23,0-19.31-11.25-19.31-22.72,0-8.09,2.79-16.55,10.37-20.49a1.12,1.12,0,0,0,.5-1.65A1.18,1.18,0,0,0,40.26,5c-.22,0-.43,0-.5.07C31.39,9.54,28.1,18.56,28.1,27.66c0,12.61,7.87,25.08,21.67,25.08ZM44,6A1.12,1.12,0,0,0,45.2,5a1.58,1.58,0,0,0-.08-1C45,3.66,44.77,3.45,44,3.3a1.24,1.24,0,0,0-1.22.86v.07a1.07,1.07,0,0,0,.15.94A2.17,2.17,0,0,0,44,6ZM2.07,81.89a1.14,1.14,0,0,0,.79.58L10,84a1.28,1.28,0,0,0,1.28-.65,8,8,0,0,1,7.37-4.44,8.29,8.29,0,0,1,5.8,2.37,8.62,8.62,0,0,1,2.36,5.87,8.22,8.22,0,0,1-16.38.93c-.08-.86-.51-1-1.29-1s-1.08.5-1,1.29A10.56,10.56,0,1,0,18.67,76.52a10.49,10.49,0,0,0-9,4.94l-4.87-1a56.66,56.66,0,0,1,4.08-7.31c3-4.59,6-9,9.23-13.47a.88.88,0,0,0,.22-.86,1.41,1.41,0,0,0-.51-.79,1.16,1.16,0,0,0-.64-.21,1.24,1.24,0,0,0-1,.5C11.45,64.55,4.93,73.73,2,80.89a1.64,1.64,0,0,0,.07,1ZM1,87.12a17.8,17.8,0,0,0,17.67,17.63A17.75,17.75,0,0,0,36.28,87.12c0-9.67-7.09-16.76-16.75-17.62.5-.72,1.15-1.58,1.86-2.65s1.5-2.08,2.36-3.3S25.47,61.19,26.4,60s1.79-2.44,2.72-3.51a1.15,1.15,0,0,0,.29-.93,1.86,1.86,0,0,0-.51-.79,1.13,1.13,0,0,0-.71-.22,1.16,1.16,0,0,0-.93.43c-3.44,4.37-6.87,8.89-9.88,13.54L16.31,70a1.26,1.26,0,0,0,0,1.22,1.12,1.12,0,0,0,1.07.64,21.83,21.83,0,0,1,6.8,1,14.88,14.88,0,0,1,9.73,14.26,15.4,15.4,0,0,1-15.24,15.26A15.42,15.42,0,0,1,3.36,87.12,1.11,1.11,0,0,0,2.22,85.9,1.26,1.26,0,0,0,1,87.12ZM18.32,55.38a.84.84,0,0,0,.07.93,2,2,0,0,0,1.14.79,1.2,1.2,0,0,0,1.22-.93,1.64,1.64,0,0,0-.07-1c-.15-.36-.36-.58-1.15-.72a1.11,1.11,0,0,0-1.21.86Zm21.6,26.51a1.14,1.14,0,0,0,.79.58L47.87,84a1.28,1.28,0,0,0,1.28-.65,8,8,0,0,1,7.37-4.44,8.29,8.29,0,0,1,5.8,2.37,8.62,8.62,0,0,1,2.36,5.87,8.22,8.22,0,0,1-16.39.93c-.07-.86-.49-1-1.28-1s-1.08.5-1,1.29A10.55,10.55,0,1,0,56.52,76.52a10.49,10.49,0,0,0-9,4.94l-4.87-1a56.66,56.66,0,0,1,4.08-7.31c3-4.59,6-9,9.23-13.47a.88.88,0,0,0,.22-.86,1.45,1.45,0,0,0-.5-.79,1.22,1.22,0,0,0-.65-.21,1.24,1.24,0,0,0-1,.5C49.3,64.55,42.79,73.73,39.85,80.89A1.64,1.64,0,0,0,39.92,81.89Zm-1.07,5.23a17.64,17.64,0,0,0,35.28,0c0-9.67-7.09-16.76-16.75-17.62.5-.72,1.15-1.58,1.86-2.65s1.51-2.08,2.36-3.3,1.72-2.36,2.65-3.58S66,57.53,67,56.46a1.12,1.12,0,0,0,.29-.93,1.77,1.77,0,0,0-.51-.79,1.13,1.13,0,0,0-.71-.22,1.16,1.16,0,0,0-.93.43c-3.44,4.37-6.87,8.89-9.88,13.54L54.16,70a1.26,1.26,0,0,0,0,1.22,1.11,1.11,0,0,0,1.07.64,21.88,21.88,0,0,1,6.8,1,14.88,14.88,0,0,1,9.73,14.26,15.28,15.28,0,0,1-30.55,0,1.11,1.11,0,0,0-1.14-1.22,1.26,1.26,0,0,0-1.22,1.22ZM56.17,55.38a.84.84,0,0,0,.07.93,2,2,0,0,0,1.14.79,1.21,1.21,0,0,0,1.22-.93,1.64,1.64,0,0,0-.07-1c-.15-.36-.36-.58-1.15-.72a1.11,1.11,0,0,0-1.21.86Z"/></svg>