<svg id="Backgrouns" xmlns="http://www.w3.org/2000/svg" xmlns:xlink="http://www.w3.org/1999/xlink" viewBox="0 0 212 689"><defs><style>.cls-1{fill:none;}.cls-2{clip-path:url(#clip-path);}.cls-3{opacity:0.35;}.cls-4{fill:#677089;}</style><clipPath id="clip-path"><rect class="cls-1" y="-181" width="1922" height="1004"/></clipPath></defs><title>bg-lft</title><g class="cls-2"><g class="cls-3"><polygon class="cls-4" points="77.42 313.46 137.72 348.27 137.72 429.93 139.12 429.93 139.12 347.46 77.42 311.84 77.42 313.46"/><polygon class="cls-4" points="-11.58 322.21 -11.23 322 94.6 383.11 94.95 383.31 94.95 505.92 -9.31 566.11 -9.31 564.49 93.55 505.11 93.55 384.12 -11.23 323.62 -111.9 381.74 -111.9 380.12 -11.58 322.21"/><polygon class="cls-4" points="-62.5 644.93 -61.94 645.25 24.89 595.13 24.89 596.74 -61.94 646.87 -62.5 646.55 -62.5 644.93"/><polygon class="cls-4" points="-61.94 440.18 24.89 490.31 24.89 491.93 -61.94 441.8 -147.56 491.23 -147.56 489.61 -61.94 440.18"/><polygon class="cls-4" points="-61.87 399.75 -185.33 471.04 -185.33 601.92 -186.73 601.92 -186.73 470.23 -62.22 398.34 -61.87 398.14 62.65 470.03 63 470.23 63 614.41 -59.51 685.14 -59.51 683.53 61.6 613.61 61.6 471.04 -61.87 399.75"/><polygon class="cls-4" points="-181.49 184.43 -181.49 66.35 -58.02 -4.94 64.2 65.62 64.2 64.01 -58.02 -6.55 -58.37 -6.35 -182.89 65.54 -182.89 184.43 -181.49 184.43"/><polygon class="cls-4" points="19.68 98.57 19.68 190.91 107.78 241.77 195.88 190.91 195.88 98.57 197.28 98.57 197.28 191.72 107.78 243.39 18.29 191.72 18.29 98.57 19.68 98.57"/><polygon class="cls-4" points="-3.9 -4.14 -3.9 -2.53 107.43 61.75 107.78 61.95 212.38 1.56 212.38 -0.05 107.78 60.34 -3.9 -4.14"/><polygon class="cls-4" points="108.13 284.02 107.78 284.23 -3.9 219.75 -3.9 218.13 107.78 282.61 212.38 222.22 212.38 223.84 108.13 284.02"/><polygon class="cls-4" points="-128.92 269.72 -61.69 230.91 5.71 269.83 5.71 271.44 -61.69 232.53 -128.92 271.34 -128.92 269.72"/></g></g></svg>