<svg xmlns="http://www.w3.org/2000/svg" xmlns:xlink="http://www.w3.org/1999/xlink" viewBox="0 0 212 689"><defs><style>.a{fill:none;}.b{clip-path:url(#a);}.c{opacity:0.35;}.d{fill:#677089;}</style><clipPath id="a"><rect class="a" x="-1704" y="-181" width="1922" height="1004"/></clipPath></defs><title>bg-right</title><g class="b"><g class="c"><polygon class="d" points="258.55 342.23 258.72 342.33 258.72 343.89 258.55 343.8 186.18 385.58 186.18 469.15 258.55 510.94 258.72 510.84 258.72 512.41 258.55 512.5 184.82 469.93 184.82 384.8 258.55 342.23"/><polygon class="d" points="96.14 454.35 96.14 586.24 215.7 655.27 335.27 586.24 335.27 454.35 336.63 454.35 336.63 587.02 216.04 656.64 215.7 656.84 95.12 587.22 94.78 587.02 94.78 454.35 96.14 454.35"/><polygon class="d" points="176.16 540.86 94.78 493.88 13.4 540.86 11.57 540.86 11.57 540.84 94.55 492.93 94.78 492.8 177.76 540.71 177.99 540.84 177.99 540.86 176.16 540.86"/><polygon class="d" points="148.8 492.75 148.8 567.96 214.28 605.76 214.84 605.43 214.84 607 214.28 607.33 147.45 568.74 147.45 492.75 148.8 492.75"/><polygon class="d" points="137.02 338.47 136.68 338.66 34.19 279.49 33.85 279.3 33.85 160.56 134.82 102.27 134.82 103.84 35.2 161.34 35.2 278.52 136.68 337.1 234.16 280.82 234.16 282.38 137.02 338.47"/><polygon class="d" points="234.16 319.57 234.16 321.13 137.87 376.73 137.53 376.93 45.66 323.89 45.66 322.32 137.53 375.36 234.16 319.57"/><polygon class="d" points="185.78 25.63 101.7 74.17 101.7 72.61 185.78 24.06 185.78 25.63"/><polygon class="d" points="185.78 224.22 101.7 175.67 101.7 174.11 185.78 222.65 268.69 174.79 268.69 176.35 185.78 224.22"/><polygon class="d" points="183.43 -13 183.43 -11.44 66.15 56.28 66.15 194.34 185.62 263.32 185.62 264.88 65.13 195.32 64.79 195.12 64.79 55.49 183.43 -13"/></g></g></svg>