<svg xmlns="http://www.w3.org/2000/svg" xmlns:xlink="http://www.w3.org/1999/xlink" viewBox="0 0 55 60"><defs><style>.cls-1{fill:url(#Degradado_sin_nombre_189);}</style><linearGradient id="Degradado_sin_nombre_189" x1="27.35" y1="60.18" x2="27.35" y2="1" gradientUnits="userSpaceOnUse"><stop offset="0" stop-color="#dddfe0"/><stop offset="0.21" stop-color="#e2e3e4"/><stop offset="0.57" stop-color="#a1a1a1"/><stop offset="0.77" stop-color="#f0f0f0"/></linearGradient></defs><title>iso</title><g id="Pages"><path class="cls-1" d="M30.49,52.43l7.29-4.24L37.7,36.06,42.94,33,43,45.14l4.25-2.49a1.76,1.76,0,0,0,.87-1.53l-.07-13.91,5.27-3.07.09,17.71a5.52,5.52,0,0,1-2.73,4.79L27.52,60.18l-3-1.71-.13-24L6.61,24.31l0,5.89L17,36.13l0,6.17L6.67,36.36l0,5a1.74,1.74,0,0,0,.89,1.52l14.17,8,0,6-17.59-10a5.49,5.49,0,0,1-2.79-4.76L1.28,15.29,27.36,30.16,48.05,18,40.31,13.6l-15.57,9-5.25-3,15.56-9-6.94-4a1.76,1.76,0,0,0-1.76,0L9.05,16.79l-5.2-3L24.48,1.75a5.51,5.51,0,0,1,5.5,0L53.28,15l0,6h0L30.39,34.41Z"/></g></svg>