<svg id="Group_3" data-name="Group 3" xmlns="http://www.w3.org/2000/svg" xmlns:xlink="http://www.w3.org/1999/xlink" width="105.969" height="40" viewBox="0 0 105.969 40">
  <defs>
    <clipPath id="clip-path">
      <path id="Clip_2" data-name="Clip 2" d="M0,0H35V40H0Z" fill="none"/>
    </clipPath>
    <linearGradient id="linear-gradient" x1="0.5" y1="0.888" x2="0.5" y2="0.22" gradientUnits="objectBoundingBox">
      <stop offset="0" stop-color="#ff765a"/>
      <stop offset="1" stop-color="#ff927c"/>
    </linearGradient>
    <filter id="Fill_1" x="-6" y="-4" width="47" height="52" filterUnits="userSpaceOnUse">
      <feOffset dy="2" input="SourceAlpha"/>
      <feGaussianBlur stdDeviation="2" result="blur"/>
      <feFlood flood-opacity="0.502"/>
      <feComposite operator="in" in2="blur"/>
      <feComposite in="SourceGraphic"/>
    </filter>
    <clipPath id="clip-path-2">
      <path id="Clip_10" data-name="Clip 10" d="M0,0H10.637V17.37H0Z" transform="translate(0.332 0.63)" fill="none"/>
    </clipPath>
  </defs>
  <g id="Group_3_Copy_3" data-name="Group 3 Copy 3">
    <path id="Clip_2-2" data-name="Clip 2" d="M0,0H35V40H0Z" fill="none"/>
    <g id="Group_3_Copy_3-2" data-name="Group 3 Copy 3" clip-path="url(#clip-path)">
      <g transform="matrix(1, 0, 0, 1, 0, 0)" filter="url(#Fill_1)">
        <path id="Fill_1-2" data-name="Fill 1" d="M19.529,34.773l4.922-2.842-.008-8.2,3.532-2.046.008,8.2,2.867-1.662a1.189,1.189,0,0,0,.593-1.03V17.788L35,15.735V27.706a3.722,3.722,0,0,1-1.852,3.222L17.5,40l-2.012-1.169V22.6L3.557,15.682v3.977l6.976,4.051.008,4.164-6.983-4.05v3.353a1.191,1.191,0,0,0,.6,1.032l9.509,5.475v4.05L1.86,30.926A3.721,3.721,0,0,1,0,27.7V9.562L17.5,19.708l13.97-8.123L26.278,8.564,15.767,14.622l-3.524-2.053,10.5-6.051-4.652-2.7a1.182,1.182,0,0,0-1.187,0L5.229,10.607,1.734,8.582,15.663.5A3.694,3.694,0,0,1,19.37.5L35,9.562V13.62h-.008L19.529,22.589Z" fill="url(#linear-gradient)"/>
      </g>
    </g>
  </g>
  <g id="Group_12" data-name="Group 12" transform="translate(46 11)">
    <path id="Fill_1-3" data-name="Fill 1" d="M10.893,4.765l-4.21,5.608,4.24,6.162c.12.177.131.466-.2.466H7.508a.831.831,0,0,1-.635-.466L3.694,11.481l.073,5.053A.46.46,0,0,1,3.329,17H.681a.447.447,0,0,1-.46-.466L0,.443A.4.4,0,0,1,.443,0H3.1a.4.4,0,0,1,.455.443l.1,8.976L6.77,4.632A.659.659,0,0,1,7.343,4.3h3.31a.3.3,0,0,1,.322.2.325.325,0,0,1-.082.266" transform="translate(0 1)" fill="#fff"/>
    <path id="Fill_3" data-name="Fill 3" d="M5.592,13A5.325,5.325,0,0,1,.151,8.572,8.61,8.61,0,0,1,.029,7.338L0,5.8a5.878,5.878,0,0,1,1.4-4.376A5.491,5.491,0,0,1,5.481,0a5.354,5.354,0,0,1,5.387,4.6A7.333,7.333,0,0,1,10.981,5.8L11,7.073c0,.336-.167.528-.45.528H3.5l0,.038a6.842,6.842,0,0,0,.079.865C3.8,9.63,4.4,10.048,5.827,10.048c1.248,0,2.984-.108,4.221-.2.041,0,.078,0,.111,0,.267,0,.361.09.372.355l.005,1.676c0,.364-.065.508-.437.594A16.762,16.762,0,0,1,5.592,13ZM5.513,2.864c-1.349,0-2,.806-2.051,2.535H7.591a5.346,5.346,0,0,0-.07-.97A1.771,1.771,0,0,0,5.513,2.864Z" transform="translate(11 5)" fill="#fff"/>
    <path id="Fill_5" data-name="Fill 5" d="M5.581,13A5.315,5.315,0,0,1,.146,8.572,8.642,8.642,0,0,1,.025,7.338L0,5.8A5.887,5.887,0,0,1,1.414,1.419,5.5,5.5,0,0,1,5.493,0a5.343,5.343,0,0,1,5.38,4.6A7.655,7.655,0,0,1,10.984,5.8L11,7.073c0,.336-.169.528-.451.528H3.5l0,.059a6.658,6.658,0,0,0,.077.845c.21,1.125.818,1.543,2.241,1.543.986,0,2.446-.068,4.222-.2.041,0,.078,0,.111,0,.266,0,.36.09.371.355l0,1.676c0,.364-.067.509-.438.594A16.765,16.765,0,0,1,5.581,13ZM5.519,2.864c-1.348,0-2,.806-2.056,2.535h4.13a5.49,5.49,0,0,0-.07-.97A1.768,1.768,0,0,0,5.519,2.864Z" transform="translate(24 5)" fill="#fff"/>
    <path id="Fill_7" data-name="Fill 7" d="M5.57,13A5.3,5.3,0,0,1,.142,8.572,8.491,8.491,0,0,1,.023,7.338L0,5.8a5.9,5.9,0,0,1,1.42-4.376A5.513,5.513,0,0,1,5.5,0a5.334,5.334,0,0,1,5.374,4.6A7.563,7.563,0,0,1,10.985,5.8L11,7.073c-.005.336-.17.528-.451.528H3.5L3.5,7.7a6.459,6.459,0,0,0,.075.809c.207,1.125.813,1.543,2.238,1.543,1.248,0,2.986-.108,4.224-.2.041,0,.078,0,.111,0,.266,0,.36.09.371.355v1.676c0,.364-.068.508-.44.594A16.768,16.768,0,0,1,5.57,13ZM5.525,2.864c-1.349,0-2,.806-2.06,2.535H7.6a5.5,5.5,0,0,0-.068-.97A1.763,1.763,0,0,0,5.525,2.864Z" transform="translate(37 5)" fill="#fff"/>
    <g id="Group_11" data-name="Group 11" transform="translate(49)">
      <path id="Clip_10-2" data-name="Clip 10" d="M0,0H10.637V17.37H0Z" transform="translate(0.332 0.63)" fill="none"/>
      <g id="Group_11-2" data-name="Group 11" clip-path="url(#clip-path-2)">
        <path id="Fill_9" data-name="Fill 9" d="M5.432,17.37A5.207,5.207,0,0,1,1.89,16.085,5.643,5.643,0,0,1,.149,12.8a7.3,7.3,0,0,1-.12-1.165L0,9.894C-.029,7.81.392,6.355,1.288,5.445A5.46,5.46,0,0,1,5.345,4.163a14.419,14.419,0,0,1,1.767.157L7.1.447A.394.394,0,0,1,7.514,0h2.578a.489.489,0,0,1,.362.112.448.448,0,0,1,.1.336l.081,15.691c0,.372-.1.518-.658.65A19.389,19.389,0,0,1,5.432,17.37ZM5.378,7.163A1.847,1.847,0,0,0,4,7.613a3.1,3.1,0,0,0-.546,2.281l.028,1.745a8.871,8.871,0,0,0,.1,1.187,1.623,1.623,0,0,0,1.84,1.566,11.264,11.264,0,0,0,1.757-.134L7.134,7.276A15.233,15.233,0,0,0,5.378,7.163Z" transform="translate(0.332 0.63)" fill="#fff"/>
      </g>
    </g>
  </g>
</svg>
