<svg xmlns="http://www.w3.org/2000/svg" xmlns:xlink="http://www.w3.org/1999/xlink" viewBox="0 0 1212 141"><defs><style>.cls-1,.cls-6{fill:none;}.cls-2{clip-path:url(#clip-path);}.cls-3{opacity:0.35;}.cls-4{fill:#677089;}.cls-5{fill:#8f95a9;}.cls-6{stroke:#8f95a9;stroke-miterlimit:10;stroke-width:1.77px;}</style><clipPath id="clip-path"><rect class="cls-1" x="-2174" y="-240" width="1922" height="1004"/></clipPath></defs><title>line</title><g id="Backgrouns"><g class="cls-2"><g class="cls-3"><polygon class="cls-4" points="-55.84 34.11 -55.84 123.53 29.47 172.78 114.79 123.53 114.79 34.11 116.14 34.11 116.14 124.31 29.47 174.35 -57.19 124.31 -57.19 34.11 -55.84 34.11"/></g></g></g><g id="Pages"><path class="cls-5" d="M195.3,81.1l8.25-4.77a2.2,2.2,0,0,1,2.19,0L215,81.68v2.39h0v8.31a2.21,2.21,0,0,1-1.1,1.9l-9.26,5.35-1.19-.69-1.09-.65-7-4a2.18,2.18,0,0,1-1.1-1.9V81.68Z"/><path class="cls-5" d="M601.8,81.1l8.25-4.77a2.2,2.2,0,0,1,2.19,0l9.26,5.35v2.39h0v8.31a2.21,2.21,0,0,1-1.1,1.9l-9.26,5.35L610,98.94l-1.09-.65-7-4a2.18,2.18,0,0,1-1.1-1.9V81.68Z"/><path class="cls-5" d="M1008.3,81.1l8.25-4.77a2.2,2.2,0,0,1,2.19,0l9.26,5.35v2.39h0v8.31a2.21,2.21,0,0,1-1.1,1.9l-9.26,5.35-1.19-.69-1.09-.65-7-4a2.18,2.18,0,0,1-1.1-1.9V81.68Z"/><path class="cls-6" d="M130.68,51.68l18.31,32a7.55,7.55,0,0,0,6.53,3.81l90.31.26h4.3l3.92,0a7.49,7.49,0,0,0,6.49-3.71L279.09,52.2,446,52.64"/><line class="cls-6" x1="131.59" y1="52.74" x2="23" y2="52.74"/><path class="cls-6" d="M536.68,51.68l18.31,32a7.55,7.55,0,0,0,6.53,3.81l90.31.26h4.3l3.92,0a7.49,7.49,0,0,0,6.49-3.71L685.09,52.2,852,52.64"/><line class="cls-6" x1="537.59" y1="52.74" x2="429" y2="52.74"/><path class="cls-6" d="M940.68,51.68l18.31,32a7.55,7.55,0,0,0,6.53,3.81l90.31.26h4.3l3.92,0a7.49,7.49,0,0,0,6.49-3.71l18.55-31.85,104,.44"/><line class="cls-6" x1="941.59" y1="52.74" x2="833" y2="52.74"/></g></svg>