<svg xmlns="http://www.w3.org/2000/svg" xmlns:xlink="http://www.w3.org/1999/xlink" viewBox="0 0 1182 60"><defs><style>.cls-1,.cls-6{fill:none;}.cls-2{clip-path:url(#clip-path);}.cls-3{opacity:0.35;}.cls-4{fill:#677089;}.cls-5{fill:#8f95a9;}.cls-6{stroke:#8f95a9;stroke-miterlimit:10;stroke-width:1.77px;}</style><clipPath id="clip-path"><rect class="cls-1" x="-2192" y="-282" width="1922" height="1004"/></clipPath></defs><title>line</title><g id="Backgrouns"><g class="cls-2"><g class="cls-3"><polygon class="cls-4" points="-73.84 -7.89 -73.84 81.53 11.47 130.78 96.79 81.53 96.79 -7.89 98.14 -7.89 98.14 82.31 11.47 132.35 -75.19 82.31 -75.19 -7.89 -73.84 -7.89"/></g></g></g><g id="Pages"><path class="cls-5" d="M177.3,39.1l8.25-4.77a2.2,2.2,0,0,1,2.19,0L197,39.68v2.39h0v8.31a2.21,2.21,0,0,1-1.1,1.9l-9.26,5.35-1.19-.69-1.09-.65-7-4a2.18,2.18,0,0,1-1.1-1.9V39.68Z"/><path class="cls-5" d="M605.3,39.1l8.25-4.77a2.2,2.2,0,0,1,2.19,0L625,39.68v2.39h0v8.31a2.21,2.21,0,0,1-1.1,1.9l-9.26,5.35-1.19-.69-1.09-.65-7-4a2.18,2.18,0,0,1-1.1-1.9V39.68Z"/><path class="cls-5" d="M990.3,39.1l8.25-4.77a2.2,2.2,0,0,1,2.19,0l9.26,5.35v2.39h0v8.31a2.21,2.21,0,0,1-1.1,1.9l-9.26,5.35-1.19-.69-1.09-.65-7-4a2.18,2.18,0,0,1-1.1-1.9V39.68Z"/><path class="cls-6" d="M112.68,9.68l18.31,32a7.55,7.55,0,0,0,6.53,3.81l90.31.26h4.3l3.92,0a7.49,7.49,0,0,0,6.49-3.71L261.09,10.2,428,10.64"/><line class="cls-6" x1="113.59" y1="10.74" x2="5" y2="10.74"/><path class="cls-6" d="M539.68,9.68l18.31,32a7.55,7.55,0,0,0,6.53,3.81l90.31.26h4.3l3.92,0a7.49,7.49,0,0,0,6.49-3.71L688.09,10.2,839,10.64"/><line class="cls-6" x1="540.59" y1="10.74" x2="399" y2="10.74"/><path class="cls-6" d="M922.68,9.68l18.31,32a7.55,7.55,0,0,0,6.53,3.81l90.31.26h4.3l3.92,0a7.49,7.49,0,0,0,6.49-3.71l18.55-31.85,104,.44"/><line class="cls-6" x1="923.59" y1="10.74" x2="815" y2="10.74"/></g></svg>