<svg xmlns="http://www.w3.org/2000/svg" viewBox="0 0 209 56"><defs><style>.a{fill:#8f95a9;}</style></defs><title>KEEED_Website_110920_FINAL</title><path class="a" d="M65.63,9a11.48,11.48,0,0,1,8,2.78,9.43,9.43,0,0,1,3,7.31,9.43,9.43,0,0,1-3,7.3,11.48,11.48,0,0,1-8,2.78H58.19V9Zm0,16.47a7.24,7.24,0,0,0,5.06-1.73,6,6,0,0,0,1.89-4.65,6,6,0,0,0-1.89-4.66,7.24,7.24,0,0,0-5.06-1.73H62.29V25.44Z"/><path class="a" d="M83.33,8A2.28,2.28,0,0,1,84,9.63a2.18,2.18,0,0,1-.7,1.66,2.57,2.57,0,0,1-3.44,0,2.24,2.24,0,0,1-.68-1.66A2.41,2.41,0,0,1,83.33,8Zm-3.7,21.18v-15h4v15Z"/><path class="a" d="M90.17,24.36c.18,1.36,1.21,2,3.1,2A3.08,3.08,0,0,0,95,26a1.26,1.26,0,0,0,.63-1.08c0-.66-.55-1.12-1.66-1.36l-3.07-.63a5.93,5.93,0,0,1-3.14-1.54,3.71,3.71,0,0,1-1.1-2.74,4.42,4.42,0,0,1,1.67-3.58,6.79,6.79,0,0,1,4.47-1.38,7.45,7.45,0,0,1,4.38,1.23,5,5,0,0,1,2.15,3.22l-3.79.76a2.15,2.15,0,0,0-.89-1.51,3.22,3.22,0,0,0-2-.57,2.32,2.32,0,0,0-1.57.43,1.38,1.38,0,0,0-.48,1c0,.65.45,1.07,1.36,1.27l3.58.78a5.36,5.36,0,0,1,2.94,1.55,3.91,3.91,0,0,1,1,2.7,4.31,4.31,0,0,1-1.79,3.73,8,8,0,0,1-4.8,1.29,9,9,0,0,1-4.58-1.09,4.26,4.26,0,0,1-2.16-3.33Z"/><path class="a" d="M112.27,14l-.21,3.82h-.87q-5.35,0-5.36,6.45v4.84h-4v-15h4v2.74a6.26,6.26,0,0,1,5.39-2.95A3.51,3.51,0,0,1,112.27,14Z"/><path class="a" d="M128.5,29.14h-4V27.79a6.42,6.42,0,0,1-4.73,1.8,5.7,5.7,0,0,1-4.37-1.76,6.39,6.39,0,0,1-1.65-4.56V14.12h4v8.31a3.81,3.81,0,0,0,.83,2.56,2.77,2.77,0,0,0,2.21,1c2.49,0,3.74-1.72,3.74-5.18V14.12h4Z"/><path class="a" d="M146.22,15.94a7.85,7.85,0,0,1,2.22,5.71,7.83,7.83,0,0,1-2.2,5.69,7,7,0,0,1-5.18,2.25,7.69,7.69,0,0,1-5-1.62v6.29h-4V14.12h4v1.2a7.53,7.53,0,0,1,5-1.65A7,7,0,0,1,146.22,15.94Zm-2.83,9a4.44,4.44,0,0,0,1.19-3.26,4.52,4.52,0,0,0-1.19-3.29,4,4,0,0,0-3-1.23,4.13,4.13,0,0,0-3,1.26,4.35,4.35,0,0,0-1.3,3.26,4.26,4.26,0,0,0,1.3,3.23,4.12,4.12,0,0,0,3,1.25A4,4,0,0,0,143.39,24.91Z"/><path class="a" d="M161.78,28.48a8.37,8.37,0,0,1-3.92,1.11,6,6,0,0,1-4.33-1.49A5.9,5.9,0,0,1,152,23.6V17.37h-3.22V14.12H152V9.57h4v4.55h4.9v3.25h-4.9V23.3c0,1.73.73,2.59,2.19,2.59a5.36,5.36,0,0,0,2.5-.72Z"/><path class="a" d="M167.23,8a2.31,2.31,0,0,1,.69,1.67,2.21,2.21,0,0,1-.69,1.66,2.4,2.4,0,0,1-1.72.66,2.38,2.38,0,0,1-1.73-.66,2.24,2.24,0,0,1-.68-1.66,2.41,2.41,0,0,1,2.41-2.38A2.32,2.32,0,0,1,167.23,8Zm-3.7,21.18v-15h4v15Z"/><path class="a" d="M180,29.14h-4.22l-6.26-15h4.27l4.1,10.21L182,14.09h4.28Z"/><path class="a" d="M201.8,22.7H190.36a4.39,4.39,0,0,0,1.34,2.54,3.44,3.44,0,0,0,2.42,1,4,4,0,0,0,3.73-2l3.56.76a7.3,7.3,0,0,1-2.86,3.46,8.28,8.28,0,0,1-4.43,1.17,7.45,7.45,0,0,1-5.48-2.22,7.75,7.75,0,0,1-2.23-5.72,7.78,7.78,0,0,1,2.24-5.74,7.5,7.5,0,0,1,5.53-2.24,7.27,7.27,0,0,1,5.28,2.15,7.76,7.76,0,0,1,2.34,5.52Zm-9.92-4.85a3.34,3.34,0,0,0-1.4,2h7.25a3.56,3.56,0,0,0-1.32-2.08,3.74,3.74,0,0,0-2.23-.69A4,4,0,0,0,191.88,17.85Z"/><path class="a" d="M63.41,36.37a2.81,2.81,0,0,1,1.12,1.77l-1,.24a2,2,0,0,0-.77-1.28,2.46,2.46,0,0,0-1.54-.48,2.31,2.31,0,0,0-1.46.44,1.43,1.43,0,0,0-.56,1.16,1.18,1.18,0,0,0,.34.89,2.16,2.16,0,0,0,1,.44l1.94.44c1.49.31,2.24,1.08,2.24,2.3a2.31,2.31,0,0,1-.9,1.92,3.73,3.73,0,0,1-2.4.72,4.17,4.17,0,0,1-2.45-.71,2.74,2.74,0,0,1-1.16-1.94l1.1-.23a2.11,2.11,0,0,0,.85,1.44,2.9,2.9,0,0,0,1.75.51,2.44,2.44,0,0,0,1.58-.46,1.43,1.43,0,0,0,.58-1.19,1.16,1.16,0,0,0-.34-.92,2.52,2.52,0,0,0-1.1-.48l-2-.43c-1.43-.32-2.14-1.08-2.14-2.27a2.25,2.25,0,0,1,.87-1.84,3.52,3.52,0,0,1,2.29-.7A3.59,3.59,0,0,1,63.41,36.37Z"/><path class="a" d="M70.35,44.41a2.6,2.6,0,0,1-1.51.52,2.12,2.12,0,0,1-1.58-.58,2.18,2.18,0,0,1-.58-1.63V39.07H65.26v-.85h1.42V35.88h1v2.34H70v.85H67.7v3.58a1.38,1.38,0,0,0,.32,1,1.13,1.13,0,0,0,.88.36,2,2,0,0,0,1.12-.4Z"/><path class="a" d="M77.46,44.74h-1V43.68A2.75,2.75,0,0,1,74,44.92a2.49,2.49,0,0,1-1.9-.77,2.84,2.84,0,0,1-.73-2V38.22h1V42a2.12,2.12,0,0,0,.49,1.47,1.68,1.68,0,0,0,1.31.56,2.07,2.07,0,0,0,1.65-.69,2.76,2.76,0,0,0,.61-1.93V38.22h1Z"/><path class="a" d="M86.05,44.76H85V43.67a3,3,0,0,1-2.6,1.26,3.12,3.12,0,0,1-2.29-1,3.63,3.63,0,0,1,0-4.94,3.12,3.12,0,0,1,2.29-1A3,3,0,0,1,85,39.32V34.55h1Zm-1.74-1.44A2.41,2.41,0,0,0,85,41.5a2.44,2.44,0,0,0-.73-1.84A2.4,2.4,0,0,0,82.6,39a2.35,2.35,0,0,0-1.74.71,2.5,2.5,0,0,0-.69,1.84,2.44,2.44,0,0,0,.7,1.83,2.34,2.34,0,0,0,1.73.7A2.4,2.4,0,0,0,84.31,43.32Z"/><path class="a" d="M89.49,35.77a.67.67,0,0,1,.2.48.61.61,0,0,1-.2.48.71.71,0,0,1-1,0,.64.64,0,0,1-.2-.48.68.68,0,0,1,.69-.68A.72.72,0,0,1,89.49,35.77Zm-1,9V38.22h1v6.54Z"/><path class="a" d="M97.28,39a3.26,3.26,0,0,1,1,2.44,3.32,3.32,0,0,1-1,2.46,3.59,3.59,0,0,1-4.93,0,3.28,3.28,0,0,1-1-2.46,3.22,3.22,0,0,1,1-2.44,3.64,3.64,0,0,1,4.93,0Zm-.72,4.27a2.45,2.45,0,0,0,.72-1.83,2.41,2.41,0,0,0-.72-1.8A2.36,2.36,0,0,0,94.82,39a2.46,2.46,0,0,0-2.49,2.51A2.48,2.48,0,0,0,94.82,44,2.37,2.37,0,0,0,96.56,43.31Z"/><path class="a" d="M205.39,12.5a1.44,1.44,0,0,1,.44,1.09,1.4,1.4,0,0,1-.44,1.07,1.55,1.55,0,0,1-2.14,0,1.4,1.4,0,0,1-.44-1.07,1.44,1.44,0,0,1,.44-1.09,1.55,1.55,0,0,1,2.14,0Zm-1.95.17a1.25,1.25,0,0,0-.37.91,1.24,1.24,0,0,0,.37.91,1.2,1.2,0,0,0,.88.35,1.18,1.18,0,0,0,.88-.35,1.24,1.24,0,0,0,.37-.91,1.27,1.27,0,0,0-.37-.91,1.19,1.19,0,0,0-.88-.36A1.21,1.21,0,0,0,203.44,12.67Zm1.44.28a.61.61,0,0,1,.25.44l-.42.07a.34.34,0,0,0-.13-.2.41.41,0,0,0-.24-.08.34.34,0,0,0-.27.12.36.36,0,0,0-.11.28.38.38,0,0,0,.11.29.34.34,0,0,0,.27.12.38.38,0,0,0,.25-.09.29.29,0,0,0,.12-.22l.42.07a.67.67,0,0,1-.24.46.81.81,0,0,1-.55.19.83.83,0,0,1-.58-.23.78.78,0,0,1-.25-.59.76.76,0,0,1,.25-.58.83.83,0,0,1,.58-.23A.8.8,0,0,1,204.88,13Z"/><path class="a" d="M19.93,52.77a16.23,16.23,0,0,1-7.68-2A16.06,16.06,0,0,1,3.59,36.41V18.1A15.39,15.39,0,0,1,29.05,6.46l11.42,9.88A17.13,17.13,0,0,1,38.74,43.4L29,49.94A16.2,16.2,0,0,1,19.93,52.77ZM8.1,19.11v17.3A11.8,11.8,0,0,0,26.51,46.2l9.7-6.54A12.62,12.62,0,0,0,37.5,19.73L26.1,9.87A10.77,10.77,0,0,0,14.46,8.2a11,11,0,0,0-1.83,1.06,9.78,9.78,0,0,1,7.09,2.2L33.79,22.94a7.65,7.65,0,0,1-.56,12.28l-9.3,6.26A7,7,0,0,1,13.09,35.7V18.36L29.8,31.76A2,2,0,0,1,30,32l.7-.47a3.15,3.15,0,0,0,.23-5L16.87,15a5.27,5.27,0,0,0-5.7-.69A5.25,5.25,0,0,0,8.1,19.11Zm9.5,8.65V35.7a2.45,2.45,0,0,0,3.82,2l4.68-3.15Z"/></svg>