<svg xmlns="http://www.w3.org/2000/svg" viewBox="0 0 151 68"><defs><style>.a{fill:#8f95a9;}</style></defs><title>KEEED_Website_110920_FINAL</title><path class="a" d="M54.48,13.23,37.93,3.67a13.84,13.84,0,0,0-13.79,0L7.59,13.23A13.84,13.84,0,0,0,.69,25.17V44.28a13.83,13.83,0,0,0,6.9,11.94l16.55,9.56a13.77,13.77,0,0,0,13.79,0l16.55-9.56a13.82,13.82,0,0,0,6.89-11.94V25.17A13.83,13.83,0,0,0,54.48,13.23Zm1.91,31.05A8.79,8.79,0,0,1,52,51.91L35.44,61.47a8.81,8.81,0,0,1-8.81,0L10.08,51.91a8.79,8.79,0,0,1-4.4-7.63V25.17a8.8,8.8,0,0,1,4.4-7.63L26.63,8a8.81,8.81,0,0,1,8.81,0L52,17.54a8.8,8.8,0,0,1,4.4,7.63Z"/><path class="a" d="M42.4,19.41a9.14,9.14,0,0,0-3.6.75L31,23.54l-3.09,1.35a9.11,9.11,0,0,0-5.41,8.26V45.6l5.18,2.09a4.06,4.06,0,0,1-.2-1.23V33.15a4,4,0,0,1,2.42-3.69L31,29l1.11.49a4,4,0,0,1,2.42,3.69V46.46a4,4,0,0,1-3.53,4,3.87,3.87,0,0,1-.49.05,4.05,4.05,0,0,1-1.61-.34l-6.36-2.76-4.5-2a4,4,0,0,1-2.42-3.69V28.42a4,4,0,0,1,5.63-3.69l2.52,1.08a9,9,0,0,1,2.51-1.65l3.09-1.35-6.13-2.65a9.14,9.14,0,0,0-3.6-.75h0a9,9,0,0,0-9,9V41.74A9,9,0,0,0,16.08,50l10.86,4.72a9,9,0,0,0,3.6.75l.49,0a9,9,0,0,0,8.46-8.06,7.25,7.25,0,0,0,0-.93V33.15a9,9,0,0,0-2.91-6.61l4.16-1.81a4,4,0,0,1,5.63,3.69V41.74A4,4,0,0,1,44,45.43l-2.61,1.13c0,1.22-.35,4.34-2,6.33L46,50a9,9,0,0,0,5.41-8.26V28.42A9,9,0,0,0,42.4,19.41Z"/><path class="a" d="M71.26,47.56v-30h6.28a8.82,8.82,0,0,1,3.52.64,6.64,6.64,0,0,1,2.38,1.68,6.35,6.35,0,0,1,1.33,2.43,10,10,0,0,1,.4,2.84v1.1A9.42,9.42,0,0,1,85,28.3a5.12,5.12,0,0,1-.57,1.47,6,6,0,0,1-2.19,2,4.61,4.61,0,0,1,2.23,2.1,8.37,8.37,0,0,1,.72,3.8v1.68a8.73,8.73,0,0,1-1.92,6.08q-1.92,2.1-6.13,2.1Zm4.3-26v8.27H77.5a3.3,3.3,0,0,0,2.89-1.08,5.56,5.56,0,0,0,.73-3.14,4.75,4.75,0,0,0-.82-3,3.68,3.68,0,0,0-3-1Zm0,12.06v9.61h1.85a4.46,4.46,0,0,0,2-.38,2.65,2.65,0,0,0,1.12-1.05,4.06,4.06,0,0,0,.46-1.6c.06-.62.08-1.3.08-2a14.2,14.2,0,0,0-.12-2,3.73,3.73,0,0,0-.51-1.43,2.5,2.5,0,0,0-1.14-.87,5.49,5.49,0,0,0-1.89-.27Z"/><path class="a" d="M88.71,17.54H93v24a2.35,2.35,0,0,0,.45,1.67,2.84,2.84,0,0,0,1.66.57v4a13.48,13.48,0,0,1-2.66-.24,4.55,4.55,0,0,1-2-.9,3.89,3.89,0,0,1-1.28-1.79,8.67,8.67,0,0,1-.45-3.06Z"/><path class="a" d="M96.43,33.35A14.89,14.89,0,0,1,96.6,31,5.83,5.83,0,0,1,97.23,29a5.74,5.74,0,0,1,2.17-2.23,7.37,7.37,0,0,1,6.87,0A5.74,5.74,0,0,1,108.44,29a6.07,6.07,0,0,1,.64,1.94,16.19,16.19,0,0,1,.16,2.4v7a16.19,16.19,0,0,1-.16,2.4,6,6,0,0,1-.64,1.94A5.74,5.74,0,0,1,106.27,47a7.37,7.37,0,0,1-6.87,0,5.68,5.68,0,0,1-2.8-4.17,14.89,14.89,0,0,1-.17-2.4Zm4.3,7.72a2.57,2.57,0,0,0,.57,1.83,2.22,2.22,0,0,0,3.08,0,2.62,2.62,0,0,0,.56-1.83V32.68a2.64,2.64,0,0,0-.56-1.83,2.25,2.25,0,0,0-3.08,0,2.59,2.59,0,0,0-.57,1.83Z"/><path class="a" d="M121,56.21V45.62h-.08a5.19,5.19,0,0,1-1.71,1.63,4.43,4.43,0,0,1-2.25.57,4.6,4.6,0,0,1-2.43-.55,4.67,4.67,0,0,1-1.41-1.39,4.35,4.35,0,0,1-.55-1.77,34.09,34.09,0,0,1-.12-3.42V32.55a19.13,19.13,0,0,1,.16-2.82,6.05,6.05,0,0,1,.55-1.77,3.87,3.87,0,0,1,3.76-2,5.23,5.23,0,0,1,1.39.17,4.19,4.19,0,0,1,1,.47,4.29,4.29,0,0,1,.84.69c.26.27.52.56.8.87V26.19h4.3v30ZM116.71,41a3.42,3.42,0,0,0,.44,1.77,1.76,1.76,0,0,0,1.66.76,2,2,0,0,0,1.54-.66A2.31,2.31,0,0,0,121,41.2V32.89a3,3,0,0,0-.59-1.92,1.89,1.89,0,0,0-1.56-.73,1.74,1.74,0,0,0-1.6.8,3.93,3.93,0,0,0-.5,2.1Z"/><path class="a" d="M128.81,26.19V19.7h4.3v6.49h2.65v3.37h-2.65V41.41a3.68,3.68,0,0,0,.15,1.18,1.15,1.15,0,0,0,.48.63,1.72,1.72,0,0,0,.82.25c.33,0,.73.05,1.2.05v4H134a5.78,5.78,0,0,1-2.46-.46A4.4,4.4,0,0,1,130,45.92a4.54,4.54,0,0,1-.87-1.62,6.16,6.16,0,0,1-.27-1.75v-13h-2.15V26.19Z"/><path class="a" d="M145.21,32.17a2.13,2.13,0,0,0-.7-1.64A2.29,2.29,0,0,0,143,30a1.93,1.93,0,0,0-1.56.66,2.26,2.26,0,0,0-.54,1.49,2.43,2.43,0,0,0,.29,1.16,2.75,2.75,0,0,0,1.52,1l2.53,1a6.17,6.17,0,0,1,3.31,2.53,7,7,0,0,1,.9,3.5,6.44,6.44,0,0,1-.48,2.5,6.59,6.59,0,0,1-1.33,2.05,6.12,6.12,0,0,1-2,1.39,6.44,6.44,0,0,1-2.57.51,6.19,6.19,0,0,1-4.39-1.65,5.92,5.92,0,0,1-1.43-2,7.12,7.12,0,0,1-.59-2.8h4a4.1,4.1,0,0,0,.62,1.64,1.85,1.85,0,0,0,1.7.76,2.53,2.53,0,0,0,1.67-.61,2.11,2.11,0,0,0,.74-1.71,2.5,2.5,0,0,0-.47-1.52,3.67,3.67,0,0,0-1.68-1.09l-2.07-.76A7,7,0,0,1,138,35.82a5.74,5.74,0,0,1-1.16-3.65,6.31,6.31,0,0,1,.5-2.5,6.21,6.21,0,0,1,1.4-2,5.59,5.59,0,0,1,2-1.28,6.57,6.57,0,0,1,2.44-.45,6.3,6.3,0,0,1,2.43.47,5.56,5.56,0,0,1,1.92,1.31,6.3,6.3,0,0,1,1.26,2,6.52,6.52,0,0,1,.46,2.46Z"/></svg>